<svg xmlns="http://www.w3.org/2000/svg" viewBox="0 0 800 800"><defs><style>.cls-1{fill:#fbb017;}.cls-1,.cls-10,.cls-11,.cls-12,.cls-13,.cls-14,.cls-2,.cls-3,.cls-4,.cls-5,.cls-6,.cls-7,.cls-8,.cls-9{fill-rule:evenodd;}.cls-2{fill:#009b95;}.cls-16,.cls-3{fill:#1f61ad;}.cls-4{fill:#5f439a;}.cls-5{fill:#af3862;}.cls-6{fill:#ed2f24;}.cls-7{fill:#f47e20;}.cls-10,.cls-11,.cls-12,.cls-13,.cls-14,.cls-8,.cls-9{fill:none;stroke-linejoin:round;stroke-width:23px;}.cls-8{stroke:#009b95;}.cls-9{stroke:#1f61ad;}.cls-10{stroke:#5f439a;}.cls-11{stroke:#af3862;}.cls-12{stroke:#ed2f24;}.cls-13{stroke:#f47e20;}.cls-14{stroke:#fbb017;}.cls-15{font-size:50.25px;fill:#0a0b18;font-family:Poppins-SemiBold, Poppins SemiBold;}.cls-16{font-size:14.31px;font-family:Poppins-Light, Poppins Light;}</style></defs><title>Artboard 5</title><g id="object"><path class="cls-1" d="M328.15,291.77c16.09,23.47,87.26,20,91.39,18.64s-5.88-7.25-8.19-10.76c-34.73-8.82-57.53-11.26-75.67-27.34C327.37,264.94,320.5,280.62,328.15,291.77Z"/><path class="cls-2" d="M323.42,365.28c28.4,1.77,69.46-56.46,70.95-60.55s-2.49-6.51-6.68-6.85c-28.34,21.94-51.13,45.09-75,49.48C301.8,349.37,309.93,364.44,323.42,365.28Z"/><path class="cls-3" d="M377,413.88c18.88-21.3-1.73-89.51-4-93.2s-5.67-2.34-8.52.75c-.16,35.83,3.06,68.36-8.16,89.84C351.1,421.12,368,424,377,413.88Z"/><path class="cls-4" d="M449.33,401.85c-5.15-28-71.58-53.74-75.91-54.2s-5.87,3.14-5.19,7.29c28.14,22.18,56.28,39.56,66.3,61.63C439.13,426.67,451.78,415.14,449.33,401.85Z"/><path class="cls-5" d="M485.23,337.5C460,324.33,398.8,360.82,395.78,364s-.6,6.55,3.09,8.56c34.81-8.51,65.28-20,88.84-14.29C498.51,360.82,497.21,343.75,485.23,337.5Z"/><path class="cls-6" d="M456.49,270.24C430.58,282,421.66,352.7,422.26,357s4.6,5.1,8.46,3.43c14.72-32.67,24.64-64.33,43.63-79.4C483,274.14,468.79,264.65,456.49,270.24Z"/><path class="cls-7" d="M386,252.58c-6.67,27.67,43.54,78.22,47.31,80.4a6.27,6.27,0,0,0,9.27-4c-16.68-31.71-36.89-59.58-37.07-83.82C405.46,234.06,389.21,239.45,386,252.58Z"/><path class="cls-1" d="M403.22,298.22c-2.71,9.6,1.43,10.27,3.09,13.22,5.2,6.75,18.91,1.43,20.9.61l1.06-.38c3.13-1.13,5.15-3.76,4.48-5.65a3.31,3.31,0,0,0-2.81-1.87c1.47-1.25,2.22-2.84,1.77-4.09s-1.88-1.91-3.69-1.95c1.29-1.21,1.92-2.67,1.5-3.85-.56-1.55-2.74-2.25-5.24-1.82a3.16,3.16,0,0,0,.84-3c-.63-1.74-3.47-2.32-6.35-1.28a8.09,8.09,0,0,0-2.72,1.58C412.06,290.31,405,291.82,403.22,298.22Z"/><path class="cls-7" d="M433.44,314.21c-9.67,2.45-8.19,6.37-9.92,9.28-3.24,7.89,8.22,17.1,9.93,18.41l.86.73c2.53,2.15,5.82,2.59,7.12,1.06a3.28,3.28,0,0,0,.22-3.37c1.82.65,3.57.51,4.43-.51s.71-2.58-.16-4.17c1.7.52,3.28.33,4.09-.63,1.07-1.26.58-3.5-1-5.45a3.15,3.15,0,0,0,3-.76c1.19-1.41.27-4.16-2.07-6.14a8.32,8.32,0,0,0-2.72-1.56C444.7,317.91,439.89,312.58,433.44,314.21Z"/><path class="cls-6" d="M436.45,345c-8-5.94-10.11-2.31-13.46-1.8-8.16,2.47-8.05,17.17-8,19.33,0,.38,0,.78,0,1.12-.06,3.33,1.69,6.15,3.7,6.19a3.28,3.28,0,0,0,2.74-2c.65,1.82,1.86,3.08,3.2,3.11s2.45-1.08,3.13-2.76c.67,1.63,1.82,2.74,3.07,2.76,1.65,0,3.07-1.76,3.56-4.24a3.15,3.15,0,0,0,2.48,1.83c1.85,0,3.39-2.42,3.45-5.49a8.28,8.28,0,0,0-.51-3.09C440.71,356,441.79,348.93,436.45,345Z"/><path class="cls-5" d="M414.11,369.41c-1.14-9.91-5.22-9-7.88-11.06-7.38-4.27-18,5.86-19.57,7.38l-.84.76c-2.46,2.23-3.33,5.43-2,6.92a3.29,3.29,0,0,0,3.31.66c-.89,1.72-1,3.47-.08,4.46s2.46,1.05,4.15.4c-.74,1.61-.76,3.2.08,4.13,1.11,1.23,3.39,1,5.54-.3a3.13,3.13,0,0,0,.35,3.06c1.24,1.37,4.09.82,6.36-1.23a8.39,8.39,0,0,0,1.92-2.49C408.94,380.08,414.87,376,414.11,369.41Z"/><path class="cls-4" d="M382.67,366c7.7-6.34,4.69-9.25,5-12.62-.43-8.52-14.73-11.95-16.84-12.41l-1.09-.3c-3.21-.86-6.37.16-6.89,2.09a3.29,3.29,0,0,0,1.25,3.14c-1.93.19-3.45,1.06-3.8,2.36s.46,2.64,1.93,3.69c-1.75.26-3.11,1.11-3.43,2.32-.43,1.59,1,3.41,3.26,4.48a3.13,3.13,0,0,0-2.37,2c-.48,1.78,1.53,3.87,4.49,4.66a8.36,8.36,0,0,0,3.13.26C370.91,367.51,377.54,370.27,382.67,366Z"/><path class="cls-3" d="M366,338c9.93.93,9.84-3.26,12.44-5.43,5.7-6.35-2-18.86-3.19-20.67l-.56-1c-1.67-2.87-4.63-4.38-6.37-3.37a3.27,3.27,0,0,0-1.32,3.1c-1.5-1.22-3.2-1.67-4.36-1s-1.53,2.19-1.24,4c-1.42-1-3-1.4-4.06-.77-1.43.82-1.71,3.1-.84,5.48a3.16,3.16,0,0,0-3.08-.29c-1.59.93-1.64,3.83-.1,6.48a8.18,8.18,0,0,0,2,2.38C356.64,330.71,359.39,337.34,366,338Z"/><path class="cls-1" d="M413,299.52C403,297,394,295,385.83,293c6.69,4.91,13.11,10.82,16.19,18.24,10.31,0,17.85-.59,19.12-1C425.27,308.93,415.26,303,413,299.52Z"/><path class="cls-2" d="M379.58,309.07c7.05,7.06,9.66,3.78,13.05,3.78,8.43-1.24,10.49-15.8,10.75-17.94.07-.38.13-.77.19-1.11.55-3.28-.76-6.33-2.74-6.66a3.28,3.28,0,0,0-3,1.53c-.37-1.9-1.39-3.33-2.71-3.55s-2.58.71-3.49,2.27c-.43-1.72-1.4-3-2.64-3.19-1.62-.28-3.29,1.29-4.15,3.67a3.15,3.15,0,0,0-2.18-2.18c-1.82-.3-3.71,1.9-4.22,4.92a8.22,8.22,0,0,0,.05,3.14C377,297.5,374.89,304.36,379.58,309.07Z"/><polyline class="cls-8" points="336.57 399.22 309.1 364.43 318.3 325"/><polyline class="cls-9" points="403.78 428 359.13 427.79 336.57 399.22"/><polyline class="cls-10" points="467.1 394.33 439.85 428.17 403.78 428"/><polyline class="cls-11" points="481.45 324.86 490.48 365.3 467.1 394.33"/><polyline class="cls-12" points="435.65 268.36 472.9 286.52 481.45 324.86"/><polyline class="cls-13" points="361.84 269.46 400.33 251.14 435.65 268.36"/><polyline class="cls-14" points="318.3 325 327.44 285.82 361.84 269.46"/><text class="cls-15" transform="translate(203.28 501.41)">CommuniAlerta</text><text class="cls-16" transform="translate(203.43 526.19)">Juntos por uma communidade segura e livre de violencia</text></g></svg>